<?xml version="1.0" encoding="UTF-8" standalone="no"?>
<!DOCTYPE svg PUBLIC "-//W3C//DTD SVG 1.1//EN" "http://www.w3.org/Graphics/SVG/1.1/DTD/svg11.dtd">
<svg width="100%" height="100%" viewBox="0 0 16 16" version="1.1" xmlns="http://www.w3.org/2000/svg" xmlns:xlink="http://www.w3.org/1999/xlink" xml:space="preserve" xmlns:serif="http://www.serif.com/" style="fill-rule:evenodd;clip-rule:evenodd;stroke-linejoin:round;stroke-miterlimit:2;">
    <path d="M3,4C1.354,4 -0,5.354 0,7L0,12L2,12L2,10L4,10L4,8L2,8L2,7C2,6.451 2.451,6 3,6L4,6L4,4L3,4ZM6,4L6,9C6,10.646 7.354,12 9,12L10,12L10,10L9,10C8.451,10 8,9.549 8,9L8,4L6,4ZM12,4L12,9C12,10.646 13.354,12 15,12L16,12L16,10L15,10C14.451,10 14,9.549 14,9L14,8L16,8L16,6L14,6L14,4L12,4Z" style="fill:rgb(160,32,240);fill-rule:nonzero;"/>
</svg>
