<?xml version="1.0" encoding="UTF-8" standalone="no"?>
<!DOCTYPE svg PUBLIC "-//W3C//DTD SVG 1.1//EN" "http://www.w3.org/Graphics/SVG/1.1/DTD/svg11.dtd">
<svg width="100%" height="100%" viewBox="0 0 16 16" version="1.1" xmlns="http://www.w3.org/2000/svg" xmlns:xlink="http://www.w3.org/1999/xlink" xml:space="preserve" xmlns:serif="http://www.serif.com/" style="fill-rule:evenodd;clip-rule:evenodd;stroke-linejoin:round;stroke-miterlimit:2;">
    <g transform="matrix(2.29484,0,0,2.42216,-12.4585,-11.2728)">
        <path d="M5.429,6.303C5.429,5.744 5.552,5.329 5.798,5.059C6.043,4.789 6.376,4.654 6.797,4.654C7.232,4.654 7.572,4.788 7.818,5.057C8.063,5.325 8.186,5.741 8.186,6.303C8.186,6.863 8.063,7.278 7.818,7.548C7.572,7.818 7.239,7.953 6.818,7.953C6.384,7.953 6.043,7.818 5.798,7.55C5.552,7.281 5.429,6.866 5.429,6.303ZM6.362,6.295C6.362,6.701 6.409,6.974 6.503,7.113C6.574,7.215 6.672,7.266 6.797,7.266C6.925,7.266 7.024,7.215 7.095,7.113C7.186,6.974 7.232,6.701 7.232,6.295C7.232,5.888 7.186,5.617 7.095,5.481C7.024,5.376 6.925,5.323 6.797,5.323C6.672,5.323 6.574,5.374 6.503,5.477C6.409,5.616 6.362,5.888 6.362,6.295ZM7.709,11.247L6.823,11.247L10.151,4.654L11.012,4.654L7.709,11.247ZM9.644,9.606C9.644,9.046 9.767,8.632 10.012,8.362C10.258,8.092 10.594,7.957 11.02,7.957C11.449,7.957 11.787,8.092 12.032,8.362C12.278,8.632 12.401,9.046 12.401,9.606C12.401,10.169 12.278,10.585 12.032,10.855C11.787,11.125 11.454,11.26 11.033,11.26C10.598,11.26 10.258,11.125 10.012,10.855C9.767,10.585 9.644,10.169 9.644,9.606ZM10.577,9.602C10.577,10.008 10.624,10.279 10.718,10.416C10.789,10.521 10.887,10.574 11.012,10.574C11.14,10.574 11.238,10.522 11.306,10.42C11.4,10.281 11.446,10.008 11.446,9.602C11.446,9.196 11.401,8.923 11.31,8.784C11.239,8.681 11.14,8.63 11.012,8.63C10.884,8.63 10.786,8.681 10.718,8.784C10.624,8.923 10.577,9.196 10.577,9.602Z" style="fill:rgb(160,32,240);fill-rule:nonzero;"/>
    </g>
</svg>
