<?xml version="1.0" encoding="UTF-8" standalone="no"?>
<!DOCTYPE svg PUBLIC "-//W3C//DTD SVG 1.1//EN" "http://www.w3.org/Graphics/SVG/1.1/DTD/svg11.dtd">
<svg width="100%" height="100%" viewBox="0 0 16 16" version="1.1" xmlns="http://www.w3.org/2000/svg" xmlns:xlink="http://www.w3.org/1999/xlink" xml:space="preserve" xmlns:serif="http://www.serif.com/" style="fill-rule:evenodd;clip-rule:evenodd;stroke-linejoin:round;stroke-miterlimit:2;">
    <g transform="matrix(2.19144,0,0,2.40125,-9.70145,-10.9324)">
        <path d="M5.685,11.008L5.685,4.761L7.709,4.761C8.476,4.761 8.976,4.792 9.209,4.854C9.567,4.948 9.867,5.152 10.108,5.466C10.35,5.78 10.471,6.185 10.471,6.683C10.471,7.066 10.401,7.389 10.262,7.65C10.123,7.911 9.946,8.117 9.731,8.266C9.517,8.415 9.299,8.514 9.077,8.562C8.776,8.622 8.34,8.651 7.769,8.651L6.946,8.651L6.946,11.008L5.685,11.008ZM6.946,5.817L6.946,7.59L7.637,7.59C8.134,7.59 8.466,7.558 8.634,7.492C8.801,7.427 8.933,7.325 9.028,7.185C9.123,7.046 9.171,6.884 9.171,6.7C9.171,6.472 9.104,6.285 8.97,6.137C8.837,5.989 8.668,5.897 8.463,5.86C8.313,5.832 8.01,5.817 7.556,5.817L6.946,5.817Z" style="fill:rgb(160,32,240);fill-rule:nonzero;"/>
    </g>
</svg>
