<?xml version="1.0" encoding="UTF-8" standalone="no"?>
<!DOCTYPE svg PUBLIC "-//W3C//DTD SVG 1.1//EN" "http://www.w3.org/Graphics/SVG/1.1/DTD/svg11.dtd">
<svg width="100%" height="100%" viewBox="0 0 16 16" version="1.1" xmlns="http://www.w3.org/2000/svg" xmlns:xlink="http://www.w3.org/1999/xlink" xml:space="preserve" xmlns:serif="http://www.serif.com/" style="fill-rule:evenodd;clip-rule:evenodd;stroke-linejoin:round;stroke-miterlimit:2;">
    <g transform="matrix(3.24334,0,0,2.51801,-17.1133,-11.7725)">
        <path d="M8.25,9.397L7.163,9.397C7.161,9.241 7.159,9.146 7.159,9.112C7.159,8.759 7.217,8.47 7.334,8.242C7.45,8.015 7.683,7.759 8.033,7.475C8.382,7.191 8.591,7.005 8.659,6.917C8.764,6.778 8.817,6.624 8.817,6.457C8.817,6.224 8.724,6.024 8.538,5.858C8.352,5.692 8.101,5.609 7.786,5.609C7.482,5.609 7.227,5.695 7.023,5.869C6.818,6.042 6.678,6.306 6.601,6.661L5.501,6.525C5.533,6.016 5.749,5.584 6.151,5.229C6.553,4.874 7.081,4.697 7.735,4.697C8.422,4.697 8.969,4.876 9.375,5.236C9.782,5.595 9.985,6.013 9.985,6.491C9.985,6.755 9.91,7.005 9.761,7.241C9.612,7.477 9.293,7.798 8.804,8.204C8.551,8.414 8.394,8.583 8.333,8.711C8.272,8.839 8.245,9.068 8.25,9.397ZM7.163,11.008L7.163,9.811L8.361,9.811L8.361,11.008L7.163,11.008Z" style="fill:rgb(160,32,240);fill-rule:nonzero;"/>
    </g>
</svg>
